/* XPM */
static char const * fast_forward_xpm[] = {
"16 16 6 1",
" 	c None",
".	c #666666",
"+	c #FFFFFF",
"@	c #FCFCFC",
"#	c #000000",
"$	c #FDFDFD",
"                ",
" ..    ..       ",
" .+.   .+.      ",
" .++.  .++.     ",
" .+++. .+++.    ",
" .++++..++++.   ",
" .+++++.+++++.  ",
" .++++++++++++. ",
" .+++++.@++++.##",
" .++++..$+++.## ",
" .+++.#.+++.##  ",
" .++.##.++.##   ",
" .+.## .+.##    ",
" ..##  ..##     ",
"  ##    ##      ",
"                "};
