/* XPM */
static char const * rewind_xpm[] = {
"16 16 7 1",
" 	c None",
".	c #666666",
"+	c #FFFFFF",
"@	c #000000",
"#	c #FCFCFC",
"$	c #FDFDFD",
"%	c #646464",
"                ",
"       ..    .. ",
"      .+.@  .+.@",
"     .++.@ .++.@",
"    .+++.@.+++.@",
"   .++++..++++.@",
"  .+++++.+++++.@",
" .++++++++++++.@",
"  .++++#.+++++.@",
"   .+++$%.++++.@",
"    .+++.@.+++.@",
"     .++.@ .++.@",
"      .+.@  .+.@",
"       ..@   ..@",
"        @@    @@",
"                "};
